<?xml version="1.0"?>
<svg xmlns:rdf="http://www.w3.org/1999/02/22-rdf-syntax-ns#" xmlns="http://www.w3.org/2000/svg" xmlns:cc="http://creativecommons.org/ns#" xmlns:dc="http://purl.org/dc/elements/1.1/" xmlns:svg="http://www.w3.org/2000/svg" id="svg2966" viewBox="0 0 220 220" version="1.1">
  <g id="layer1" transform="translate(0,-832.36)">
    <g id="g3658" transform="translate(-1)">
      <path id="path2859" d="m107.5 1024.4h67.5v-182h-130c-3 0-5 2-5 5.0027v182c0-3 2-5 5-5h62.5z" fill="#621e37"/>
      <g id="text3633" fill="#ff8821" transform="matrix(1.0028 0 0 1.0288 -1.9955 -25.39)">
        <path id="path3648" d="m83.737 895.79v5.3418h3.1641c1.0612 0 1.8457-0.2181 2.3535-0.6543 0.51431-0.44271 0.77147-1.1165 0.77148-2.0215-0.00001-0.91145-0.25717-1.582-0.77148-2.0117-0.50782-0.43619-1.2923-0.65429-2.3535-0.6543h-3.1641m0-5.9961v4.3945h2.9199c0.96353 0.00001 1.6797-0.17903 2.1484-0.53711 0.47525-0.36458 0.71288-0.91796 0.71289-1.6602-0.00001-0.73566-0.23764-1.2858-0.71289-1.6504-0.46876-0.36457-1.1849-0.54686-2.1484-0.54687h-2.9199m-1.9727-1.6211h5.0391c1.5039 0.00002 2.6628 0.31252 3.4766 0.9375 0.81379 0.62501 1.2207 1.5137 1.2207 2.666-0.000011 0.89193-0.20834 1.6016-0.625 2.1289-0.41668 0.52736-1.0287 0.85613-1.8359 0.98633 0.97004 0.20834 1.722 0.64454 2.2559 1.3086 0.54035 0.65755 0.81054 1.4811 0.81055 2.4707-0.000012 1.3021-0.44272 2.3079-1.3281 3.0176-0.88543 0.70963-2.1452 1.0644-3.7793 1.0644h-5.2344v-14.58"/>
        <path id="path3650" d="m95.475 888.17h1.9727v14.58h-1.9727v-14.58"/>
        <path id="path3652" d="m103.35 895.79v5.3418h3.1641c1.0612 0 1.8457-0.2181 2.3535-0.6543 0.51431-0.44271 0.77147-1.1165 0.77148-2.0215-0.00001-0.91145-0.25717-1.582-0.77148-2.0117-0.50782-0.43619-1.2923-0.65429-2.3535-0.6543h-3.1641m0-5.9961v4.3945h2.9199c0.96353 0.00001 1.6797-0.17903 2.1484-0.53711 0.47525-0.36458 0.71288-0.91796 0.71289-1.6602-0.00001-0.73566-0.23764-1.2858-0.71289-1.6504-0.46876-0.36457-1.1849-0.54686-2.1484-0.54687h-2.9199m-1.9727-1.6211h5.0391c1.5039 0.00002 2.6628 0.31252 3.4766 0.9375 0.81379 0.62501 1.2207 1.5137 1.2207 2.666-0.00001 0.89193-0.20834 1.6016-0.625 2.1289-0.41668 0.52736-1.0287 0.85613-1.8359 0.98633 0.97004 0.20834 1.722 0.64454 2.2559 1.3086 0.54035 0.65755 0.81054 1.4811 0.81055 2.4707-0.00001 1.3021-0.44272 2.3079-1.3281 3.0176-0.88542 0.70963-2.1452 1.0644-3.7793 1.0644h-5.2344v-14.58"/>
        <path id="path3654" d="m115.08 888.17h1.9727v12.92h7.0996v1.6602h-9.0723v-14.58"/>
        <path id="path3656" d="m126.22 888.17h9.2188v1.6602h-7.2461v4.3164h6.9434v1.6602h-6.9434v5.2832h7.4219v1.6602h-9.3945v-14.58"/>
      </g>
      <path id="path3637" d="m175 205h20v-185h-20v185z" transform="translate(0,832.36)" fill-opacity=".19608"/>
      <path id="rect3639" d="m47 1022.4h128v15h-128c-3.878 0-7-3.122-7-7v-1c0-3.878 3.122-7 7-7z" fill="#4e1e37"/>
      <path id="rect3642" d="m47.5 195h122.5v5h-122.5c-1.385 0-2.5-1.115-2.5-2.5s1.115-2.5 2.5-2.5z" fill="#f9d97b" transform="translate(0,832.36)"/>
      <path id="rect3772" d="m75 1027.4v20l-10-10-10 10v-20h20z" fill="#ff8821"/>
      <path id="path3645" d="m75 215 20-10-20-10v20z" transform="translate(0,832.36)" fill-opacity=".19608"/>
    </g>
  </g>
  <metadata>
    <rdf:RDF>
      <cc:Work>
        <dc:format>image/svg+xml</dc:format>
        <dc:type rdf:resource="http://purl.org/dc/dcmitype/StillImage"/>
        <cc:license rdf:resource="http://creativecommons.org/licenses/publicdomain/"/>
        <dc:publisher>
          <cc:Agent rdf:about="http://openclipart.org/">
            <dc:title>Openclipart</dc:title>
          </cc:Agent>
        </dc:publisher>
        <dc:title>Bible closed</dc:title>
        <dc:date>2013-08-29T09:48:32</dc:date>
        <dc:description>closed Bible book with bookmark</dc:description>
        <dc:source>http://openclipart.org/detail/182564/bible-closed-by-crisg-182564</dc:source>
        <dc:creator>
          <cc:Agent>
            <dc:title>crisg</dc:title>
          </cc:Agent>
        </dc:creator>
        <dc:subject>
          <rdf:Bag>
            <rdf:li>bibbia</rdf:li>
            <rdf:li>bible</rdf:li>
            <rdf:li>book</rdf:li>
            <rdf:li>bookmark</rdf:li>
            <rdf:li>christianity</rdf:li>
            <rdf:li>clipart</rdf:li>
            <rdf:li>icon</rdf:li>
            <rdf:li>learning</rdf:li>
            <rdf:li>libro</rdf:li>
            <rdf:li>religion</rdf:li>
            <rdf:li>study</rdf:li>
            <rdf:li>toolbar</rdf:li>
          </rdf:Bag>
        </dc:subject>
      </cc:Work>
      <cc:License rdf:about="http://creativecommons.org/licenses/publicdomain/">
        <cc:permits rdf:resource="http://creativecommons.org/ns#Reproduction"/>
        <cc:permits rdf:resource="http://creativecommons.org/ns#Distribution"/>
        <cc:permits rdf:resource="http://creativecommons.org/ns#DerivativeWorks"/>
      </cc:License>
    </rdf:RDF>
  </metadata>
</svg>
